<svg width="134" height="102" fill="none" xmlns="http://www.w3.org/2000/svg"><path d="M96.827 64.733c0 16.575-13.507 30.011-30.169 30.011S36.49 81.308 36.49 64.733c0-16.576 13.508-30.012 30.17-30.012 16.661 0 30.168 13.437 30.168 30.012z" fill="#C4C4C4"/><path d="M59.993 68.631c-1.87-4.026-.136-8.793 3.855-10.628 3.983-1.831 8.735-.046 10.605 3.98l39.443 21.99L70.164 72.81c-3.892 1.5-8.37-.302-10.171-4.18z" fill="#030104"/><path d="M20.043 20.668C32.495 8.226 49.05 1.374 66.658 1.374c17.61 0 34.165 6.852 46.616 19.294 12.452 12.443 19.309 28.985 19.309 46.58 0 11.362-2.865 22.28-8.243 31.942h-12.322l-9.012-5.2 3.98-6.888 11.588 6.686a57.892 57.892 0 006.407-26.54c0-1.69-.077-3.363-.218-5.018l-13.818 2.435-1.382-7.834 13.98-2.463c-2.498-11.02-8.131-20.866-15.908-28.548L98.163 37.1l-6.098-5.113 9.543-11.365A58.025 58.025 0 0070.638 9.11v15.086h-7.96V9.109a58.035 58.035 0 00-30.97 11.514l9.544 11.364-6.098 5.113-9.472-11.28c-7.778 7.682-13.41 17.527-15.908 28.548l13.98 2.464-1.383 7.833L8.555 62.23a58.788 58.788 0 00-.219 5.018 57.881 57.881 0 006.406 26.54l11.589-6.685 3.98 6.888-9.012 5.199H8.977C3.598 89.528.734 78.61.734 67.248c0-17.595 6.858-34.138 19.309-46.58z" fill="#030104"/></svg>